name pl02_filtered_grf.mot
datacolumns 37
datarows 12
range 0.002500 0.008000
endheader
time	1_ground_force_vx	1_ground_force_vy	1_ground_force_vz	1_ground_force_px	1_ground_force_py	1_ground_force_pz	1_ground_torque_x	1_ground_torque_y	1_ground_torque_z	2_ground_force_vx	2_ground_force_vy	2_ground_force_vz	2_ground_force_px	2_ground_force_py	2_ground_force_pz	2_ground_torque_x	2_ground_torque_y	2_ground_torque_z	3_ground_force_vx	3_ground_force_vy	3_ground_force_vz	3_ground_force_px	3_ground_force_py	3_ground_force_pz	3_ground_torque_x	3_ground_torque_y	3_ground_torque_z	4_ground_force_vx	4_ground_force_vy	4_ground_force_vz	4_ground_force_px	4_ground_force_py	4_ground_force_pz	4_ground_torque_x	4_ground_torque_y	4_ground_torque_z
            0.002500	           -0.000000	           -0.000000	           -0.000000	            0.145658	            0.000000	            0.221846	           -0.000000	           -0.000000	            0.000000	            0.000000	           -0.000000	           -0.000000	           -0.297438	            0.000000	            0.094812	           -0.000000	           -0.000000	           -0.000000	          -41.620949	          211.926739	           74.967997	            0.413234	            1.262028	            1.872276	            1.468582	           -7.477768	           -2.645222	           46.484009	          377.972552	          105.487422	           -0.354292	            1.256237	            1.899653	            2.168576	           17.633209	            4.921209
            0.003000	           -0.000000	           -0.000000	           -0.000000	            0.145658	            0.000000	            0.221846	           -0.000000	           -0.000000	            0.000000	            0.000000	           -0.000000	           -0.000000	           -0.297438	            0.000000	            0.094812	           -0.000000	           -0.000000	           -0.000000	          -41.669826	          212.228473	           74.910381	            0.413234	            1.262028	            1.872276	            1.470467	           -7.489230	           -2.643477	           46.607940	          378.292076	          105.455632	           -0.354292	            1.256237	            1.899653	            2.175228	           17.655175	            4.921694
            0.003500	           -0.000000	           -0.000000	           -0.000000	            0.145658	            0.000000	            0.221846	           -0.000000	           -0.000000	            0.000000	            0.000000	           -0.000000	           -0.000000	           -0.297438	            0.000000	            0.094812	           -0.000000	           -0.000000	           -0.000000	          -41.718443	          212.540266	           74.853523	            0.413233	            1.262026	            1.872274	            1.472330	           -7.500985	           -2.641736	           46.733189	          378.613697	          105.422368	           -0.354293	            1.256237	            1.899653	            2.181915	           17.677011	            4.922041
            0.004000	           -0.000000	           -0.000000	           -0.000000	            0.145658	            0.000000	            0.221846	           -0.000000	           -0.000000	            0.000000	            0.000000	           -0.000000	           -0.000000	           -0.297438	            0.000000	            0.094812	           -0.000000	           -0.000000	           -0.000000	          -41.766720	          212.861961	           74.797526	            0.413232	            1.262024	            1.872273	            1.474170	           -7.513030	           -2.640002	           46.859659	          378.936928	          105.387807	           -0.354295	            1.256237	            1.899654	            2.188634	           17.698680	            4.922257
            0.004500	            0.000000	           -0.000000	           -0.000000	            0.145658	            0.000000	            0.221846	           -0.000000	           -0.000000	            0.000000	            0.000000	           -0.000000	           -0.000000	           -0.297438	            0.000000	            0.094812	           -0.000000	            0.000000	           -0.000000	          -41.814583	          213.193382	           74.742492	            0.413231	            1.262022	            1.872272	            1.475983	           -7.525361	           -2.638282	           46.987261	          379.261276	          105.352137	           -0.354297	            1.256237	            1.899655	            2.195376	           17.720149	            4.922347
            0.005000	            0.000000	           -0.000000	           -0.000000	            0.145658	            0.000000	            0.221846	           -0.000000	           -0.000000	            0.000000	           -0.000000	           -0.000000	           -0.000000	           -0.297438	            0.000000	            0.094812	           -0.000000	            0.000000	           -0.000000	          -41.861961	          213.534334	           74.688520	            0.413230	            1.262020	            1.872270	            1.477768	           -7.537972	           -2.636578	           47.115905	          379.586251	          105.315559	           -0.354298	            1.256237	            1.899655	            2.202138	           17.741385	            4.922317
            0.005500	            0.000000	           -0.000000	           -0.000000	            0.145658	            0.000000	            0.221846	           -0.000000	           -0.000000	            0.000000	           -0.000000	           -0.000000	           -0.000000	           -0.297438	            0.000000	            0.094812	           -0.000000	            0.000000	           -0.000000	          -41.909207	          213.884175	           74.636695	            0.413229	            1.262019	            1.872269	            1.479539	           -7.550845	           -2.634931	           47.246000	          379.912059	          105.275539	           -0.354299	            1.256237	            1.899655	            2.208937	           17.762389	            4.922047
            0.006000	            0.000000	           -0.000000	           -0.000000	            0.145658	            0.000000	            0.221846	           -0.000000	           -0.000000	            0.000000	           -0.000000	           -0.000000	           -0.000000	           -0.297438	            0.000000	            0.094812	           -0.000000	            0.000000	           -0.000000	          -41.955841	          214.243101	           74.586122	            0.413228	            1.262017	            1.872268	            1.481278	           -7.563989	           -2.633310	           47.376974	          380.237514	          105.235036	           -0.354301	            1.256237	            1.899656	            2.215745	           17.783097	            4.921673
            0.006500	            0.000000	           -0.000000	           -0.000000	            0.145658	            0.000000	            0.221846	           -0.000000	           -0.000000	            0.000000	           -0.000000	           -0.000000	           -0.000000	           -0.297438	            0.000000	            0.094812	           -0.000000	            0.000000	           -0.000000	          -42.001811	          214.610864	           74.536887	            0.413227	            1.262015	            1.872267	            1.482984	           -7.577398	           -2.631720	           47.508751	          380.562134	          105.194278	           -0.354302	            1.256237	            1.899656	            2.222557	           17.803478	            4.921204
            0.007000	            0.000000	           -0.000000	           -0.000000	            0.145658	            0.000000	            0.221846	           -0.000000	           -0.000000	            0.000000	           -0.000000	           -0.000000	           -0.000000	           -0.297438	            0.000000	            0.094812	           -0.000000	            0.000000	           -0.000000	          -42.047068	          214.987201	           74.489074	            0.413226	            1.262013	            1.872265	            1.484656	           -7.591067	           -2.630164	           47.641261	          380.885441	          105.153504	           -0.354303	            1.256237	            1.899656	            2.229369	           17.823504	            4.920650
            0.007500	            0.000000	           -0.000000	           -0.000000	            0.145658	            0.000000	            0.221846	           -0.000000	           -0.000000	            0.000000	           -0.000000	           -0.000000	           -0.000000	           -0.297438	            0.000000	            0.094812	           -0.000000	            0.000000	           -0.000000	          -42.091573	          215.371833	           74.442762	            0.413225	            1.262012	            1.872264	            1.486295	           -7.604990	           -2.628647	           47.774439	          381.206969	          105.112960	           -0.354305	            1.256237	            1.899656	            2.236177	           17.843147	            4.920020
            0.008000	            0.000000	           -0.000000	           -0.000000	            0.145658	            0.000000	            0.221846	           -0.000000	           -0.000000	            0.000000	           -0.000000	           -0.000000	           -0.000000	           -0.297438	            0.000000	            0.094812	           -0.000000	            0.000000	           -0.000000	          -42.135945	          215.763769	           74.399684	            0.413224	            1.262010	            1.872264	            1.487921	           -7.619135	           -2.627231	           47.909015	          381.527427	          105.068292	           -0.354305	            1.256237	            1.899656	            2.243015	           17.862437	            4.919111
